<svg xmlns="http://www.w3.org/2000/svg" width="780" height="12" shape-rendering="crispEdges"><path d="M0 0h3v3h-3zM3 0h3v3h-3zM6 0h3v3h-3zM9 0h3v3h-3zM12 0h3v3h-3zM15 0h3v3h-3zM18 0h3v3h-3zM21 0h3v3h-3zM24 0h3v3h-3zM27 0h3v3h-3zM30 0h3v3h-3zM33 0h3v3h-3zM36 0h3v3h-3zM39 0h3v3h-3zM42 0h3v3h-3zM45 0h3v3h-3zM48 0h3v3h-3zM51 0h3v3h-3zM54 0h3v3h-3zM57 0h3v3h-3zM60 0h3v3h-3zM63 0h3v3h-3zM66 0h3v3h-3zM69 0h3v3h-3zM72 0h3v3h-3zM75 0h3v3h-3zM78 0h3v3h-3zM81 0h3v3h-3zM84 0h3v3h-3zM87 0h3v3h-3zM90 0h3v3h-3zM93 0h3v3h-3zM96 0h3v3h-3zM99 0h3v3h-3zM102 0h3v3h-3zM105 0h3v3h-3zM108 0h3v3h-3zM111 0h3v3h-3zM114 0h3v3h-3zM117 0h3v3h-3zM120 0h3v3h-3zM123 0h3v3h-3zM126 0h3v3h-3zM129 0h3v3h-3zM132 0h3v3h-3zM135 0h3v3h-3zM138 0h3v3h-3zM141 0h3v3h-3zM144 0h3v3h-3zM147 0h3v3h-3zM150 0h3v3h-3zM153 0h3v3h-3zM156 0h3v3h-3zM159 0h3v3h-3zM162 0h3v3h-3zM165 0h3v3h-3zM168 0h3v3h-3zM171 0h3v3h-3zM174 0h3v3h-3zM177 0h3v3h-3zM180 0h3v3h-3zM183 0h3v3h-3zM186 0h3v3h-3zM189 0h3v3h-3zM192 0h3v3h-3zM195 0h3v3h-3zM198 0h3v3h-3zM201 0h3v3h-3zM204 0h3v3h-3zM207 0h3v3h-3zM210 0h3v3h-3zM213 0h3v3h-3zM216 0h3v3h-3zM219 0h3v3h-3zM222 0h3v3h-3zM225 0h3v3h-3zM228 0h3v3h-3zM231 0h3v3h-3zM234 0h3v3h-3zM237 0h3v3h-3zM240 0h3v3h-3zM243 0h3v3h-3zM246 0h3v3h-3zM249 0h3v3h-3zM252 0h3v3h-3zM255 0h3v3h-3zM258 0h3v3h-3zM261 0h3v3h-3zM264 0h3v3h-3zM267 0h3v3h-3zM270 0h3v3h-3zM273 0h3v3h-3zM276 0h3v3h-3zM279 0h3v3h-3zM282 0h3v3h-3zM285 0h3v3h-3zM288 0h3v3h-3zM291 0h3v3h-3zM294 0h3v3h-3zM297 0h3v3h-3zM300 0h3v3h-3zM303 0h3v3h-3zM306 0h3v3h-3zM309 0h3v3h-3zM312 0h3v3h-3zM315 0h3v3h-3zM318 0h3v3h-3zM321 0h3v3h-3zM324 0h3v3h-3zM327 0h3v3h-3zM330 0h3v3h-3zM333 0h3v3h-3zM336 0h3v3h-3zM339 0h3v3h-3zM342 0h3v3h-3zM348 0h3v3h-3zM351 0h3v3h-3zM354 0h3v3h-3zM360 0h3v3h-3zM363 0h3v3h-3zM366 0h3v3h-3zM372 0h3v3h-3zM375 0h3v3h-3zM378 0h3v3h-3zM384 0h3v3h-3zM390 0h3v3h-3zM396 0h3v3h-3zM402 0h3v3h-3zM408 0h3v3h-3zM414 0h3v3h-3zM420 0h3v3h-3zM426 0h3v3h-3zM432 0h3v3h-3zM438 0h3v3h-3zM444 0h3v3h-3zM450 0h3v3h-3zM456 0h3v3h-3zM462 0h3v3h-3zM468 0h3v3h-3zM474 0h3v3h-3zM480 0h3v3h-3zM486 0h3v3h-3zM492 0h3v3h-3zM504 0h3v3h-3zM516 0h3v3h-3zM528 0h3v3h-3zM0 3h3v3h-3zM3 3h3v3h-3zM6 3h3v3h-3zM9 3h3v3h-3zM12 3h3v3h-3zM15 3h3v3h-3zM18 3h3v3h-3zM21 3h3v3h-3zM24 3h3v3h-3zM27 3h3v3h-3zM30 3h3v3h-3zM33 3h3v3h-3zM36 3h3v3h-3zM39 3h3v3h-3zM42 3h3v3h-3zM45 3h3v3h-3zM48 3h3v3h-3zM51 3h3v3h-3zM54 3h3v3h-3zM57 3h3v3h-3zM60 3h3v3h-3zM63 3h3v3h-3zM66 3h3v3h-3zM69 3h3v3h-3zM72 3h3v3h-3zM75 3h3v3h-3zM78 3h3v3h-3zM81 3h3v3h-3zM84 3h3v3h-3zM87 3h3v3h-3zM90 3h3v3h-3zM93 3h3v3h-3zM96 3h3v3h-3zM99 3h3v3h-3zM102 3h3v3h-3zM105 3h3v3h-3zM108 3h3v3h-3zM111 3h3v3h-3zM114 3h3v3h-3zM117 3h3v3h-3zM120 3h3v3h-3zM123 3h3v3h-3zM126 3h3v3h-3zM129 3h3v3h-3zM132 3h3v3h-3zM135 3h3v3h-3zM138 3h3v3h-3zM141 3h3v3h-3zM144 3h3v3h-3zM147 3h3v3h-3zM150 3h3v3h-3zM153 3h3v3h-3zM156 3h3v3h-3zM159 3h3v3h-3zM162 3h3v3h-3zM165 3h3v3h-3zM168 3h3v3h-3zM171 3h3v3h-3zM174 3h3v3h-3zM177 3h3v3h-3zM180 3h3v3h-3zM183 3h3v3h-3zM186 3h3v3h-3zM189 3h3v3h-3zM192 3h3v3h-3zM195 3h3v3h-3zM198 3h3v3h-3zM201 3h3v3h-3zM204 3h3v3h-3zM207 3h3v3h-3zM210 3h3v3h-3zM213 3h3v3h-3zM216 3h3v3h-3zM219 3h3v3h-3zM222 3h3v3h-3zM225 3h3v3h-3zM228 3h3v3h-3zM231 3h3v3h-3zM234 3h3v3h-3zM237 3h3v3h-3zM240 3h3v3h-3zM243 3h3v3h-3zM246 3h3v3h-3zM249 3h3v3h-3zM252 3h3v3h-3zM255 3h3v3h-3zM258 3h3v3h-3zM261 3h3v3h-3zM264 3h3v3h-3zM267 3h3v3h-3zM273 3h3v3h-3zM276 3h3v3h-3zM279 3h3v3h-3zM285 3h3v3h-3zM288 3h3v3h-3zM291 3h3v3h-3zM297 3h3v3h-3zM300 3h3v3h-3zM303 3h3v3h-3zM309 3h3v3h-3zM315 3h3v3h-3zM321 3h3v3h-3zM327 3h3v3h-3zM333 3h3v3h-3zM339 3h3v3h-3zM345 3h3v3h-3zM351 3h3v3h-3zM357 3h3v3h-3zM363 3h3v3h-3zM369 3h3v3h-3zM375 3h3v3h-3zM381 3h3v3h-3zM387 3h3v3h-3zM393 3h3v3h-3zM399 3h3v3h-3zM405 3h3v3h-3zM411 3h3v3h-3zM417 3h3v3h-3zM423 3h3v3h-3zM435 3h3v3h-3zM447 3h3v3h-3zM0 6h3v3h-3zM3 6h3v3h-3zM6 6h3v3h-3zM9 6h3v3h-3zM12 6h3v3h-3zM15 6h3v3h-3zM18 6h3v3h-3zM21 6h3v3h-3zM24 6h3v3h-3zM27 6h3v3h-3zM30 6h3v3h-3zM33 6h3v3h-3zM36 6h3v3h-3zM39 6h3v3h-3zM42 6h3v3h-3zM45 6h3v3h-3zM48 6h3v3h-3zM51 6h3v3h-3zM54 6h3v3h-3zM57 6h3v3h-3zM60 6h3v3h-3zM63 6h3v3h-3zM66 6h3v3h-3zM69 6h3v3h-3zM72 6h3v3h-3zM75 6h3v3h-3zM78 6h3v3h-3zM81 6h3v3h-3zM84 6h3v3h-3zM87 6h3v3h-3zM90 6h3v3h-3zM93 6h3v3h-3zM96 6h3v3h-3zM99 6h3v3h-3zM102 6h3v3h-3zM105 6h3v3h-3zM108 6h3v3h-3zM111 6h3v3h-3zM114 6h3v3h-3zM117 6h3v3h-3zM120 6h3v3h-3zM123 6h3v3h-3zM126 6h3v3h-3zM129 6h3v3h-3zM132 6h3v3h-3zM135 6h3v3h-3zM138 6h3v3h-3zM141 6h3v3h-3zM144 6h3v3h-3zM147 6h3v3h-3zM150 6h3v3h-3zM153 6h3v3h-3zM156 6h3v3h-3zM159 6h3v3h-3zM162 6h3v3h-3zM165 6h3v3h-3zM168 6h3v3h-3zM171 6h3v3h-3zM174 6h3v3h-3zM177 6h3v3h-3zM180 6h3v3h-3zM183 6h3v3h-3zM186 6h3v3h-3zM189 6h3v3h-3zM192 6h3v3h-3zM195 6h3v3h-3zM198 6h3v3h-3zM201 6h3v3h-3zM204 6h3v3h-3zM207 6h3v3h-3zM210 6h3v3h-3zM213 6h3v3h-3zM216 6h3v3h-3zM219 6h3v3h-3zM222 6h3v3h-3zM225 6h3v3h-3zM228 6h3v3h-3zM231 6h3v3h-3zM234 6h3v3h-3zM237 6h3v3h-3zM240 6h3v3h-3zM243 6h3v3h-3zM246 6h3v3h-3zM249 6h3v3h-3zM252 6h3v3h-3zM255 6h3v3h-3zM258 6h3v3h-3zM261 6h3v3h-3zM264 6h3v3h-3zM267 6h3v3h-3zM270 6h3v3h-3zM273 6h3v3h-3zM276 6h3v3h-3zM279 6h3v3h-3zM282 6h3v3h-3zM285 6h3v3h-3zM288 6h3v3h-3zM291 6h3v3h-3zM294 6h3v3h-3zM297 6h3v3h-3zM300 6h3v3h-3zM303 6h3v3h-3zM306 6h3v3h-3zM309 6h3v3h-3zM312 6h3v3h-3zM315 6h3v3h-3zM318 6h3v3h-3zM321 6h3v3h-3zM324 6h3v3h-3zM330 6h3v3h-3zM333 6h3v3h-3zM336 6h3v3h-3zM342 6h3v3h-3zM345 6h3v3h-3zM348 6h3v3h-3zM354 6h3v3h-3zM357 6h3v3h-3zM360 6h3v3h-3zM366 6h3v3h-3zM372 6h3v3h-3zM378 6h3v3h-3zM384 6h3v3h-3zM390 6h3v3h-3zM396 6h3v3h-3zM402 6h3v3h-3zM408 6h3v3h-3zM414 6h3v3h-3zM420 6h3v3h-3zM426 6h3v3h-3zM432 6h3v3h-3zM438 6h3v3h-3zM444 6h3v3h-3zM450 6h3v3h-3zM456 6h3v3h-3zM462 6h3v3h-3zM468 6h3v3h-3zM474 6h3v3h-3zM486 6h3v3h-3zM498 6h3v3h-3zM510 6h3v3h-3zM0 9h3v3h-3zM3 9h3v3h-3zM6 9h3v3h-3zM9 9h3v3h-3zM12 9h3v3h-3zM15 9h3v3h-3zM18 9h3v3h-3zM21 9h3v3h-3zM24 9h3v3h-3zM27 9h3v3h-3zM30 9h3v3h-3zM33 9h3v3h-3zM36 9h3v3h-3zM39 9h3v3h-3zM42 9h3v3h-3zM45 9h3v3h-3zM48 9h3v3h-3zM51 9h3v3h-3zM54 9h3v3h-3zM57 9h3v3h-3zM60 9h3v3h-3zM63 9h3v3h-3zM66 9h3v3h-3zM69 9h3v3h-3zM72 9h3v3h-3zM75 9h3v3h-3zM78 9h3v3h-3zM81 9h3v3h-3zM84 9h3v3h-3zM87 9h3v3h-3zM90 9h3v3h-3zM93 9h3v3h-3zM96 9h3v3h-3zM99 9h3v3h-3zM102 9h3v3h-3zM105 9h3v3h-3zM108 9h3v3h-3zM111 9h3v3h-3zM114 9h3v3h-3zM117 9h3v3h-3zM120 9h3v3h-3zM123 9h3v3h-3zM126 9h3v3h-3zM129 9h3v3h-3zM132 9h3v3h-3zM135 9h3v3h-3zM138 9h3v3h-3zM141 9h3v3h-3zM144 9h3v3h-3zM147 9h3v3h-3zM150 9h3v3h-3zM153 9h3v3h-3zM156 9h3v3h-3zM159 9h3v3h-3zM162 9h3v3h-3zM165 9h3v3h-3zM168 9h3v3h-3zM171 9h3v3h-3zM174 9h3v3h-3zM177 9h3v3h-3zM180 9h3v3h-3zM183 9h3v3h-3zM186 9h3v3h-3zM189 9h3v3h-3zM192 9h3v3h-3zM195 9h3v3h-3zM198 9h3v3h-3zM201 9h3v3h-3zM204 9h3v3h-3zM207 9h3v3h-3zM210 9h3v3h-3zM213 9h3v3h-3zM216 9h3v3h-3zM219 9h3v3h-3zM222 9h3v3h-3zM225 9h3v3h-3zM228 9h3v3h-3zM231 9h3v3h-3zM234 9h3v3h-3zM237 9h3v3h-3zM240 9h3v3h-3zM243 9h3v3h-3zM246 9h3v3h-3zM249 9h3v3h-3zM255 9h3v3h-3zM258 9h3v3h-3zM261 9h3v3h-3zM267 9h3v3h-3zM270 9h3v3h-3zM273 9h3v3h-3zM279 9h3v3h-3zM282 9h3v3h-3zM285 9h3v3h-3zM291 9h3v3h-3zM297 9h3v3h-3zM303 9h3v3h-3zM309 9h3v3h-3zM315 9h3v3h-3zM321 9h3v3h-3zM327 9h3v3h-3zM333 9h3v3h-3zM339 9h3v3h-3zM345 9h3v3h-3zM351 9h3v3h-3zM357 9h3v3h-3zM363 9h3v3h-3zM369 9h3v3h-3zM375 9h3v3h-3zM381 9h3v3h-3zM387 9h3v3h-3zM393 9h3v3h-3zM399 9h3v3h-3zM405 9h3v3h-3zM417 9h3v3h-3zM429 9h3v3h-3z"/></svg>